<?xml version="1.0" encoding="UTF-8"?>
<svg version="1.1" xmlns="http://www.w3.org/2000/svg" width="392" height="264">
<path d="M0 0 C129.36 0 258.72 0 392 0 C392 87.12 392 174.24 392 264 C262.64 264 133.28 264 0 264 C0 176.88 0 89.76 0 0 Z " fill="#FBFBFB" transform="translate(0,0)"/>
<path d="M0 0 C2.81054688 1.26245117 2.81054688 1.26245117 5.71875 3.04296875 C6.80526855 3.69845703 7.89178711 4.35394531 9.01123047 5.02929688 C10.17426418 5.7485192 11.33718482 6.46792441 12.5 7.1875 C13.70506798 7.91997706 14.91097064 8.65108256 16.11767578 9.38085938 C18.56911036 10.86485127 21.01676502 12.35479758 23.46191406 13.84912109 C28.56382325 16.96002866 33.72124386 19.97608241 38.875 23 C44.82827202 26.5152399 50.77938887 30.03422857 56.6875 33.625 C57.66074219 34.21539062 58.63398438 34.80578125 59.63671875 35.4140625 C63.43769811 37.96480237 63.43769811 37.96480237 65 40 C65.36076355 42.79045105 65.36076355 42.79045105 65.34057617 46.21557617 C65.34034958 47.4966777 65.34012299 48.77777924 65.33988953 50.09770203 C65.32456957 51.49612781 65.30892158 52.89455004 65.29296875 54.29296875 C65.28737268 55.72357234 65.28310263 57.15418169 65.28010559 58.58479309 C65.26865756 62.34801132 65.23919115 66.11088156 65.20599365 69.8739624 C65.17529163 73.71475517 65.1616 77.55560423 65.14648438 81.39648438 C65.11432106 88.93114814 65.06312566 96.46552529 65 104 C66.07378906 103.52949219 67.14757812 103.05898437 68.25390625 102.57421875 C69.69009791 101.94529822 71.12629618 101.31639277 72.5625 100.6875 C73.61920898 100.2244043 73.61920898 100.2244043 74.69726562 99.75195312 C76.10928835 99.13378649 77.52213179 98.51749113 78.93579102 97.90307617 C80.28398882 97.3132496 81.628458 96.71480493 82.96850586 96.10668945 C86.86695729 94.36159952 89.71064439 93.68614471 94 94 C94 94.66 94 95.32 94 96 C95.98 96.33 97.96 96.66 100 97 C104.62 99.64 109.24 102.28 114 105 C114 116.22 114 127.44 114 139 C114.99 138.67 115.98 138.34 117 138 C118.9920303 137.91708047 120.98673713 137.89261823 122.98046875 137.90234375 C124.14384766 137.90556641 125.30722656 137.90878906 126.50585938 137.91210938 C127.72080078 137.92048828 128.93574219 137.92886719 130.1875 137.9375 C131.41404297 137.94201172 132.64058594 137.94652344 133.90429688 137.95117188 C136.93624668 137.96296935 139.96809906 137.97943079 143 138 C143 140.97 143 143.94 143 147 C142.04746338 146.98428955 142.04746338 146.98428955 141.07568359 146.96826172 C138.1754966 146.92647533 135.27537318 146.90060229 132.375 146.875 C130.87646484 146.84986328 130.87646484 146.84986328 129.34765625 146.82421875 C124.15911291 146.78985754 119.85076351 146.89745063 115 149 C114.67 151.97 114.34 154.94 114 158 C114.7425 157.67 115.485 157.34 116.25 157 C119 156 119 156 123 156 C123 155.34 123 154.68 123 154 C124.83324547 153.97250132 126.6666171 153.95338327 128.5 153.9375 C129.5209375 153.92589844 130.541875 153.91429687 131.59375 153.90234375 C135.41182905 154.01180703 139.20984793 154.52623099 143 155 C143 161.27 143 167.54 143 174 C144.78148437 173.97679687 146.56296875 173.95359375 148.3984375 173.9296875 C150.72395416 173.91093333 153.04947533 173.89273276 155.375 173.875 C156.550625 173.85824219 157.72625 173.84148437 158.9375 173.82421875 C160.61972656 173.81455078 160.61972656 173.81455078 162.3359375 173.8046875 C163.37282715 173.79421387 164.4097168 173.78374023 165.47802734 173.77294922 C168 174 168 174 170 176 C170.25 178.5 170.25 178.5 170 181 C167.34270021 183.65729979 166.11503364 183.25052336 162.40273285 183.25168228 C160.60640278 183.25950552 160.60640278 183.25950552 158.77378321 183.26748681 C157.43296913 183.26316205 156.09215565 183.25864871 154.75134277 183.25396729 C153.33623389 183.2562697 151.92112619 183.25944474 150.50602102 183.26342177 C146.60362889 183.27180864 142.70133396 183.26762696 138.79894137 183.26144934 C134.5957565 183.25694167 130.39258885 183.26390019 126.18940735 183.26940918 C117.94993465 183.27832293 109.7104983 183.27637238 101.47102416 183.2705839 C94.77724446 183.26607518 88.08347499 183.26545107 81.38969421 183.26763153 C80.43859373 183.267938 79.48749325 183.26824446 78.50757155 183.26856022 C76.57569507 183.26919964 74.6438186 183.26984806 72.71194214 183.2705054 C54.57800839 183.2762145 36.44409483 183.26964172 18.31016439 183.25890467 C2.73557474 183.24996863 -12.8389851 183.25152051 -28.41357422 183.26074219 C-46.4806745 183.2714346 -64.54775706 183.27566512 -82.61486006 183.26951766 C-84.53980477 183.26888053 -86.46474949 183.26825179 -88.38969421 183.26763153 C-89.81052185 183.2671687 -89.81052185 183.2671687 -91.26005307 183.26669653 C-97.94919598 183.26496649 -104.63832769 183.26789131 -111.32746887 183.27259064 C-119.47441426 183.27818806 -127.62132109 183.27670711 -135.76826203 183.26602915 C-139.9284427 183.26075703 -144.08855898 183.25874174 -148.24873924 183.26532745 C-152.05204524 183.27125736 -155.85522676 183.26806119 -159.65852135 183.25737235 C-161.03937506 183.25512567 -162.42023913 183.25630272 -163.80108625 183.26112393 C-165.66829472 183.26714656 -167.53553237 183.25981417 -169.40273285 183.25168228 C-170.44284185 183.25135758 -171.48295085 183.25103287 -172.5545783 183.25069833 C-175 183 -175 183 -177 181 C-176.43181818 175.43181818 -176.43181818 175.43181818 -175 174 C-173.43827255 173.91314397 -171.87270656 173.89297781 -170.30859375 173.90234375 C-169.36435547 173.90556641 -168.42011719 173.90878906 -167.44726562 173.91210938 C-166.45404297 173.92048828 -165.46082031 173.92886719 -164.4375 173.9375 C-163.44041016 173.94201172 -162.44332031 173.94652344 -161.41601562 173.95117188 C-158.94398513 173.96299977 -156.47198528 173.98093585 -154 174 C-154 167.73 -154 161.46 -154 155 C-144.10195229 154.66635794 -135.58505917 155.77276634 -126 158 C-126 154.37 -126 150.74 -126 147 C-128.56197812 146.77721929 -131.12347556 146.57137437 -133.6875 146.375 C-134.40873047 146.31054688 -135.12996094 146.24609375 -135.87304688 146.1796875 C-140.20303385 145.86334142 -143.0800137 146.20333961 -147 148 C-149.23828125 148.1953125 -149.23828125 148.1953125 -151.3125 148.125 C-152.529375 148.08375 -153.74625 148.0425 -155 148 C-155 144.7 -155 141.4 -155 138 C-145.43 138 -135.86 138 -126 138 C-126.11848332 131.55271794 -126.11848332 131.55271794 -126.27026367 125.10620117 C-126.27775635 124.30158447 -126.28524902 123.49696777 -126.29296875 122.66796875 C-126.3086792 121.84578857 -126.32438965 121.0236084 -126.34057617 120.17651367 C-125.91944149 117.48517623 -125.17915191 116.59329218 -123 115 C-120.4375 115.125 -120.4375 115.125 -118 116 C-115.7556805 119.36647925 -115.7549484 120.45622646 -115.77294922 124.3894043 C-115.77310028 125.49031906 -115.77325134 126.59123383 -115.77340698 127.72550964 C-115.78372955 128.91308365 -115.79405212 130.10065765 -115.8046875 131.32421875 C-115.8075174 132.54075638 -115.81034729 133.75729401 -115.81326294 135.01069641 C-115.82447397 138.90306358 -115.84958052 142.79520216 -115.875 146.6875 C-115.88502859 149.32356439 -115.89415465 151.95963238 -115.90234375 154.59570312 C-115.92441634 161.06388032 -115.95790312 167.53192383 -116 174 C-113.69 174 -111.38 174 -109 174 C-109 155.19 -109 136.38 -109 117 C-103.46499624 113.92499791 -98.7097198 111.36264268 -93 109 C-91.22724122 108.19170967 -89.45658112 107.37880812 -87.6875 106.5625 C-85.79185856 105.70790755 -83.89602729 104.85373605 -82 104 C-80.72382813 103.40058594 -80.72382813 103.40058594 -79.421875 102.7890625 C-70.95506848 99.03491244 -64.00657352 99.69285943 -55 101 C-55.04219162 100.43782776 -55.08438324 99.87565552 -55.12785339 99.29644775 C-55.55141445 93.39286776 -55.83585733 87.49363022 -56.04370117 81.57861328 C-56.13871596 79.37923869 -56.26801118 77.18104817 -56.43334961 74.98583984 C-57.72987298 57.31619311 -57.72987298 57.31619311 -53.2510376 51.87539673 C-48.74758617 48.05719826 -43.67937547 45.48086894 -38.32266235 43.06097412 C-35.39838116 41.72518519 -32.68411559 40.11586044 -29.9375 38.44921875 C-28.29430042 37.52395284 -26.64856749 36.60316757 -25 35.6875 C-18.49947795 32.05399434 -12.2439084 28.35335343 -6.25390625 23.9140625 C-4 23 -4 23 2 25 C2 74.17 2 123.34 2 174 C5.3 174 8.6 174 12 174 C12 127.47 12 80.94 12 33 C16.76559547 33.95311909 19.23214385 35.08332734 23.32421875 37.52734375 C24.20543144 38.05081139 24.20543144 38.05081139 25.10444641 38.58485413 C26.33933422 39.32031983 27.57214958 40.05927529 28.80297852 40.80151367 C30.68755401 41.93753256 32.57845264 43.06236824 34.47070312 44.18554688 C43.69107556 49.69107556 43.69107556 49.69107556 46 52 C46.24609566 54.15141487 46.24609566 54.15141487 46.24050903 56.87210083 C46.24463303 58.41601501 46.24463303 58.41601501 46.24884033 59.99111938 C46.2380545 61.69151871 46.2380545 61.69151871 46.22705078 63.42626953 C46.22734283 64.61649719 46.22763489 65.80672485 46.22793579 67.03302002 C46.22677915 70.30146042 46.21673158 73.56973075 46.20278788 76.83813715 C46.19030636 80.25209982 46.18911206 83.66606564 46.18673706 87.08004761 C46.18051469 93.54696901 46.16409367 100.013823 46.14403808 106.48071468 C46.12170259 113.84215927 46.11069158 121.20360704 46.10064721 128.56507707 C46.07972807 143.71008898 46.04453743 158.85503776 46 174 C48.97 174 51.94 174 55 174 C55 131.1 55 88.2 55 44 C53.35 43.67 51.7 43.34 50 43 C48.06225586 42.07958984 48.06225586 42.07958984 46.21484375 40.9609375 C45.52624268 40.54932373 44.8376416 40.13770996 44.12817383 39.71362305 C43.40525146 39.27187744 42.6823291 38.83013184 41.9375 38.375 C40.39855238 37.45163143 38.8594896 36.52845475 37.3203125 35.60546875 C36.57426758 35.15478027 35.82822266 34.7040918 35.05957031 34.23974609 C31.57088426 32.13975229 28.04275256 30.1087211 24.515625 28.07421875 C21.49555416 26.31312836 18.52283353 24.47903314 15.546875 22.64453125 C14.56420654 22.04616455 13.58153809 21.44779785 12.5690918 20.83129883 C10.58937682 19.62546512 8.61662855 18.40810644 6.65161133 17.1784668 C5.73661865 16.62457275 4.82162598 16.07067871 3.87890625 15.5 C2.65022827 14.74203125 2.65022827 14.74203125 1.39672852 13.96875 C-1.59281763 12.76038501 -2.96131301 13.00605665 -6 14 C-8.20291824 15.04978744 -8.20291824 15.04978744 -10.3359375 16.40625 C-11.14554932 16.89843018 -11.95516113 17.39061035 -12.78930664 17.89770508 C-13.64258545 18.4264624 -14.49586426 18.95521973 -15.375 19.5 C-17.17311085 20.59776474 -18.97128852 21.69542004 -20.76953125 22.79296875 C-21.65592285 23.33743652 -22.54231445 23.8819043 -23.45556641 24.44287109 C-27.57572223 26.96430209 -31.73041539 29.42744372 -35.88354492 31.89404297 C-40.61498127 34.72282536 -45.19643136 37.74868527 -49.73046875 40.8828125 C-52 42 -52 42 -54.17578125 41.8046875 C-56 41 -56 41 -58 39 C-58.37809295 36.14585932 -58.45439943 34.62797437 -56.7421875 32.26171875 C-52.13887062 28.38067962 -47.33012655 25.31844821 -42.0612793 22.4074707 C-36.32828855 19.23531083 -30.75454836 15.82899022 -25.1875 12.375 C-24.31649658 11.83665527 -23.44549316 11.29831055 -22.5480957 10.74365234 C-21.70077881 10.21723145 -20.85346191 9.69081055 -19.98046875 9.1484375 C-19.14950684 8.63249023 -18.31854492 8.11654297 -17.46240234 7.58496094 C-15.80607739 6.51884339 -14.17573581 5.4113583 -12.57275391 4.26660156 C-11.80237793 3.71713867 -11.03200195 3.16767578 -10.23828125 2.6015625 C-9.56450439 2.10221191 -8.89072754 1.60286133 -8.1965332 1.08837891 C-5.22966376 -0.38170045 -3.28153115 -0.37434377 0 0 Z " fill="#1F2628" transform="translate(201,6)"/>
<path d="M0 0 C0 44.22 0 88.44 0 134 C-11.88 134 -23.76 134 -36 134 C-36.20329223 119.23994181 -36.36902197 104.48075463 -36.46630955 89.71961021 C-36.51268613 82.86546021 -36.57589022 76.01224274 -36.67895508 69.15869141 C-36.77836303 62.54515309 -36.83055179 55.9323291 -36.85389519 49.31801224 C-36.87053103 46.79409149 -36.90301812 44.27022408 -36.95157051 41.74671555 C-37.01687704 38.21197552 -37.02590378 34.68124188 -37.02172852 31.14599609 C-37.07026474 29.57937729 -37.07026474 29.57937729 -37.11978149 27.98110962 C-37.03101163 21.03950148 -37.03101163 21.03950148 -34.08836174 18.07262039 C-31.78459853 16.51051673 -29.49271916 15.23398001 -27 14 C-25.47328647 13.12810741 -23.94937079 12.25127663 -22.4296875 11.3671875 C-20.91365365 10.53245874 -19.39542023 9.7017122 -17.875 8.875 C-16.35134995 8.03944997 -14.82790948 7.20351764 -13.3046875 6.3671875 C-12.58120117 5.97241211 -11.85771484 5.57763672 -11.11230469 5.17089844 C-9.07854645 4.04354008 -7.0745075 2.87418975 -5.0703125 1.6953125 C-2 0 -2 0 0 0 Z " fill="#EBEDED" transform="translate(193,46)"/>
<path d="M0 0 C2.54715619 0.87032672 4.61587982 1.90788746 6.90649414 3.31884766 C7.73101074 3.82101807 8.55552734 4.32318848 9.4050293 4.84057617 C10.27047363 5.37739014 11.13591797 5.9142041 12.02758789 6.46728516 C13.83844729 7.57330835 15.64964342 8.67878041 17.46118164 9.78369141 C18.32984863 10.31623535 19.19851562 10.8487793 20.09350586 11.39746094 C22.90211105 13.10853007 25.73938754 14.76493081 28.59008789 16.40478516 C32.11344134 18.43904224 35.59333166 20.53099589 39.05102539 22.67431641 C39.86168457 23.17568115 40.67234375 23.6770459 41.50756836 24.19360352 C43.11628531 25.19102081 44.72220374 26.19296947 46.32495117 27.19995117 C47.06213379 27.65684326 47.79931641 28.11373535 48.55883789 28.58447266 C49.21561523 28.99552246 49.87239258 29.40657227 50.54907227 29.83007812 C52.72232 31.07568271 52.72232 31.07568271 56.46508789 31.84228516 C56.46508789 74.74228516 56.46508789 117.64228516 56.46508789 161.84228516 C53.49508789 161.84228516 50.52508789 161.84228516 47.46508789 161.84228516 C47.48915915 160.9185098 47.48915915 160.9185098 47.5137167 159.97607231 C47.89765971 144.93325508 48.15208625 129.89415079 48.26561642 114.84718132 C48.3235912 107.56964864 48.42401081 100.29750129 48.62744141 93.02246094 C48.80483062 86.67473514 48.89944588 80.33183689 48.89815623 73.98154461 C48.90027786 70.61923132 48.95360267 67.27766207 49.08207512 63.91640854 C49.99684648 49.72404121 49.99684648 49.72404121 44.24983597 37.36869049 C38.88669616 33.03343749 32.99819972 29.94662178 26.67255497 27.24986458 C22.19179156 25.28350601 17.84173563 23.03060902 13.46508789 20.84228516 C13.46508789 67.37228516 13.46508789 113.90228516 13.46508789 161.84228516 C10.16508789 161.84228516 6.86508789 161.84228516 3.46508789 161.84228516 C3.46508789 112.67228516 3.46508789 63.50228516 3.46508789 12.84228516 C-2.47253536 11.60112964 -2.47253536 11.60112964 -6.91772461 14.11572266 C-7.69245117 14.61072266 -8.46717773 15.10572266 -9.26538086 15.61572266 C-10.05557617 16.14423828 -10.84577148 16.67275391 -11.65991211 17.21728516 C-13.24290802 18.25045211 -14.82874946 19.2792754 -16.41772461 20.30322266 C-17.46017334 20.99617432 -17.46017334 20.99617432 -18.52368164 21.703125 C-20.53735379 22.84366813 -22.27403402 23.39948499 -24.53491211 23.84228516 C-25.52491211 22.52228516 -26.51491211 21.20228516 -27.53491211 19.84228516 C-26.87491211 19.18228516 -26.21491211 18.52228516 -25.53491211 17.84228516 C-26.85491211 17.18228516 -28.17491211 16.52228516 -29.53491211 15.84228516 C-28.89465088 15.46418701 -28.25438965 15.08608887 -27.59472656 14.6965332 C-24.67884933 12.97446284 -21.76312926 11.25212655 -18.84741211 9.52978516 C-17.84000977 8.93488281 -16.83260742 8.33998047 -15.79467773 7.72705078 C-14.81821289 7.15019531 -13.84174805 6.57333984 -12.83569336 5.97900391 C-11.94019775 5.45008545 -11.04470215 4.92116699 -10.12207031 4.3762207 C-7.50553395 2.86813281 -7.50553395 2.86813281 -5.01611328 1.08374023 C-2.53491211 -0.15771484 -2.53491211 -0.15771484 0 0 Z " fill="#EAECEC" transform="translate(199.534912109375,18.15771484375)"/>
<path d="M0 0 C5.44871917 3.76240024 8.56863766 8.62970127 10.67578125 14.84765625 C11.81457444 23.5872319 9.89061546 30.26406075 4.88671875 37.3984375 C0.55514375 42.19684302 -5.65938619 45.13085812 -11.98046875 46.3671875 C-19.0984079 46.67127667 -25.89728015 44.70129121 -31.40234375 40.1171875 C-36.8274818 34.40711573 -39.35809169 28.19357862 -39.69921875 20.34765625 C-39.40783327 13.65744562 -37.78701847 8.02744876 -33.19921875 3.03515625 C-23.05279731 -6.09237768 -11.75378763 -6.44857609 0 0 Z " fill="#202727" transform="translate(334.32421875,39.15234375)"/>
<path d="M0 0 C0 2.64 0 5.28 0 8 C-0.68320313 7.96777344 -1.36640625 7.93554688 -2.0703125 7.90234375 C-14.02760127 8.03995961 -24.25153151 13.19669221 -35 18 C-35.33 20.64 -35.66 23.28 -36 26 C-34.39140791 25.35656316 -32.78286679 24.71299864 -31.17456055 24.06884766 C-29.79931501 23.51940471 -28.42316064 22.97223151 -27.04614258 22.42724609 C-24.04688305 21.23739322 -21.07310881 20.03282436 -18.12890625 18.7109375 C-12.3639812 16.14669884 -7.31978952 15.22119765 -1 16 C0 17 0 17 0.09765625 19.06640625 C0.06510417 21.37760417 0.03255208 23.68880208 0 26 C-0.64686768 26.01925537 -1.29373535 26.03851074 -1.96020508 26.05834961 C-9.84266962 26.507435 -16.39368961 28.64586915 -23.6875 31.5625 C-24.78255859 31.98724609 -25.87761719 32.41199219 -27.00585938 32.84960938 C-29.67576045 33.88725652 -32.33993582 34.93744698 -35 36 C-35.33 38.64 -35.66 41.28 -36 44 C-35.01 43.60167969 -34.02 43.20335937 -33 42.79296875 C-30.96833723 41.97566867 -28.93547432 41.16199264 -26.89892578 40.35693359 C-24.13257263 39.26325909 -21.38311712 38.17607908 -18.6796875 36.93359375 C-12.66300092 34.23780561 -6.48360385 34.73314435 0 35 C0 38.3 0 41.6 0 45 C-1.00417969 45.08636719 -2.00835937 45.17273438 -3.04296875 45.26171875 C-11.32748157 46.07713959 -18.42764925 47.50664649 -26.1328125 50.87890625 C-29.09890176 52.0386714 -31.85046482 52.58411182 -35 53 C-35 55.64 -35 58.28 -35 61 C-29.86151314 59.5568505 -24.89870896 58.00554961 -20 55.875 C-13.64407182 53.26256338 -6.71871666 51.984385 0 54 C0 56.97 0 59.94 0 63 C-14.19 63 -28.38 63 -43 63 C-43 45.84 -43 28.68 -43 11 C-37.06 8.36 -31.12 5.72 -25 3 C-23.185 2.175 -21.37 1.35 -19.5 0.5 C-13.22080914 -1.96178985 -6.47482317 -1.72661951 0 0 Z " fill="#EEF0F0" transform="translate(146,117)"/>
<path d="M0 0 C2.97 0 5.94 0 9 0 C9.268125 0.66902344 9.53625 1.33804688 9.8125 2.02734375 C12.70405454 9.11355472 15.84643043 16.04201778 19.14453125 22.94702148 C25 35.22643705 25 35.22643705 25 39 C25.66 39 26.32 39 27 39 C27.14115234 38.16662109 27.14115234 38.16662109 27.28515625 37.31640625 C28.18423905 34.40298493 29.64945443 32.40210335 31.4375 29.9375 C32.05496094 29.08027344 32.67242187 28.22304687 33.30859375 27.33984375 C33.86675781 26.56769531 34.42492187 25.79554688 35 25 C37.20837083 22.29966885 37.20837083 22.29966885 36.97265625 19.828125 C35.52832956 15.62855662 33.01905804 12.33388582 30.4375 8.75 C29.41353856 7.30858711 28.39130314 5.86594596 27.37109375 4.421875 C26.6893811 3.47199707 26.6893811 3.47199707 25.99389648 2.50292969 C25 1 25 1 25 0 C28.57776316 -0.80667729 31.44753307 -1.00020914 35 0 C37.89715096 2.94071714 39.92555952 5.82384534 42.1875 9.27734375 C43.71893973 12.06643404 43.71893973 12.06643404 46 13 C46.26683594 12.43796875 46.53367187 11.8759375 46.80859375 11.296875 C49.00366157 7.06507211 51.42467022 3.19369345 55 0 C58.14402781 -0.74358753 60.83829602 -0.58072114 64 0 C62.68779266 2.77438124 61.22517631 5.20790172 59.3984375 7.671875 C58.90859375 8.33574219 58.41875 8.99960938 57.9140625 9.68359375 C57.15222656 10.70646484 57.15222656 10.70646484 56.375 11.75 C55.859375 12.44738281 55.34375 13.14476562 54.8125 13.86328125 C53.54440881 15.57755267 52.2725711 17.28905156 51 19 C52.66824215 22.45705795 54.65548271 25.40631547 56.9375 28.5 C57.97197266 29.90765625 57.97197266 29.90765625 59.02734375 31.34375 C60.24684162 32.98584614 61.48547948 34.61414777 62.75390625 36.21875 C64 38 64 38 64 40 C60.45488924 40.71919255 57.51988479 40.92234941 54 40 C50.64870779 36.73971732 48.20985076 33.11106314 46 29 C46 28.34 46 27.68 46 27 C42.50874592 30.18985445 42.50874592 30.18985445 39.96484375 34.11328125 C38.53509754 36.84191555 37.55860211 38.23030021 35 40 C31.93244885 40.65268655 28.94213317 40.74600302 25.8125 40.75 C25.00337158 40.75298096 24.19424316 40.75596191 23.3605957 40.7590332 C17.6224695 40.54540185 17.6224695 40.54540185 14.94921875 38.203125 C14 36 14 36 14 32 C7.4 32 0.8 32 -6 32 C-6.495 34.475 -6.495 34.475 -7 37 C-7.33 38.32 -7.66 39.64 -8 41 C-11.3 41 -14.6 41 -18 41 C-14.26113915 26.51191422 -7.3354031 12.97449423 0 0 Z " fill="#262E2F" transform="translate(148,217)"/>
<path d="M0 0 C-0.06050133 18.70628584 -0.13797762 37.41242771 -0.23571491 56.11855698 C-0.28069845 64.80396055 -0.32010717 73.48932288 -0.34643555 82.17480469 C-0.36939496 89.74424777 -0.40276983 97.31356063 -0.44870156 104.88290048 C-0.47266166 108.89157568 -0.49137211 112.90012168 -0.49761391 116.90886688 C-0.50365225 120.68131605 -0.5236063 124.45343454 -0.55427551 128.22576141 C-0.5630759 129.6108572 -0.56677418 130.99599616 -0.56500816 132.38111877 C-0.5633588 134.27151213 -0.58180001 136.16189128 -0.60127258 138.05218506 C-0.60588155 139.1104034 -0.61049051 140.16862175 -0.61523914 141.25890732 C-1.05709328 144.40674088 -1.69208384 145.8216128 -4 148 C-5.32 148 -6.64 148 -8 148 C-8 148.66 -8 149.32 -8 150 C-8.66 150 -9.32 150 -10 150 C-10 105.45 -10 60.9 -10 15 C-14.62 17.64 -19.24 20.28 -24 23 C-24.99 23 -25.98 23 -27 23 C-27.625 20.6875 -27.625 20.6875 -28 18 C-27.01 16.515 -27.01 16.515 -26 15 C-26.33 14.01 -26.66 13.02 -27 12 C-26.05125 11.7525 -25.1025 11.505 -24.125 11.25 C-20.92267028 10.39002323 -20.92267028 10.39002323 -20.1953125 8.1953125 C-18.45785537 5.00429647 -15.75677749 3.48826033 -12.75 1.625 C-11.90888672 1.05458984 -11.90888672 1.05458984 -11.05078125 0.47265625 C-6.62071266 -2.29997329 -4.69728664 -1.83238571 0 0 Z " fill="#1A2123" transform="translate(203,31)"/>
<path d="M0 0 C1.05960937 0.09667969 1.05960937 0.09667969 2.140625 0.1953125 C4.75 0.875 4.75 0.875 12.75 4.875 C12.75 25.995 12.75 47.115 12.75 68.875 C9.78 68.875 6.81 68.875 3.75 68.875 C3.42 50.065 3.09 31.255 2.75 11.875 C0.11 11.545 -2.53 11.215 -5.25 10.875 C-5.43392293 15.43410706 -5.43392293 15.43410706 -4.625 19.875 C-3.95683143 23.43856572 -4.7842808 25.59423785 -6.25 28.875 C-9.11546443 30.49424624 -12.11254775 31.12521233 -15.3125 31.8125 C-16.15361328 32.01939453 -16.99472656 32.22628906 -17.86132812 32.43945312 C-23.7799782 33.875 -23.7799782 33.875 -25.25 33.875 C-25.27712153 31.958412 -25.29645097 30.0417127 -25.3125 28.125 C-25.32410156 27.05765625 -25.33570313 25.9903125 -25.34765625 24.890625 C-25.26480735 22.33225082 -24.88506222 20.32370838 -24.25 17.875 C-24.58 17.545 -24.91 17.215 -25.25 16.875 C-25.32179964 15.35571962 -25.33392007 13.83332518 -25.3125 12.3125 C-25.30347656 11.48621094 -25.29445313 10.65992187 -25.28515625 9.80859375 C-25.27355469 9.17050781 -25.26195312 8.53242187 -25.25 7.875 C-24.06921875 7.46507813 -22.8884375 7.05515625 -21.671875 6.6328125 C-20.11453448 6.08868147 -18.5572455 5.5444029 -17 5 C-16.22269531 4.73058594 -15.44539063 4.46117188 -14.64453125 4.18359375 C-13.89042969 3.91933594 -13.13632812 3.65507813 -12.359375 3.3828125 C-11.66811523 3.14191895 -10.97685547 2.90102539 -10.26464844 2.65283203 C-8.19912952 1.89540087 -8.19912952 1.89540087 -6.12304688 0.78808594 C-3.84090021 -0.32443082 -2.50786254 -0.27965374 0 0 Z " fill="#E9EBEC" transform="translate(292.25,111.125)"/>
<path d="M0 0 C5.6925 -0.12375 5.6925 -0.12375 11.5 -0.25 C12.68013672 -0.28641602 13.86027344 -0.32283203 15.07617188 -0.36035156 C21.57544439 -0.42837231 26.64027594 0.10898173 32 4 C35.11690982 7.35067805 36.26827842 10.01123489 36.5625 14.5 C36.35269854 19.4680985 34.5408838 21.62772972 31 25 C30.34 25.33 29.68 25.66 29 26 C29.75184846 29.932081 31.50957854 32.22323162 33.94140625 35.31640625 C35 37 35 37 35 40 C31.86891827 40.50097308 29.11248066 40.67927102 26 40 C22.86565051 37.17521589 20.87312525 33.7462505 19 30 C16.64400765 29.53248212 16.64400765 29.53248212 13.9375 29.375 C11.4934375 29.189375 11.4934375 29.189375 9 29 C9 32.96 9 36.92 9 41 C6.03 41 3.06 41 0 41 C0 27.47 0 13.94 0 0 Z " fill="#242C2D" transform="translate(305,217)"/>
<path d="M0 0 C9 0 9 0 12.25 2.73828125 C13.19451004 3.90773728 14.1110951 5.10023984 15 6.3125 C15.71349609 7.20485352 15.71349609 7.20485352 16.44140625 8.11523438 C18.46763492 10.69853161 19.95603941 12.86811824 21 16 C25.27228566 12.04453552 28.15349285 7.35376619 31.29296875 2.484375 C34 0 34 0 43 0 C43 13.53 43 27.06 43 41 C40.03 41 37.06 41 34 41 C33.67 33.08 33.34 25.16 33 17 C29.7 20.96 26.4 24.92 23 29 C18.87596941 26.9379847 17.58726993 25.52120266 14.875 21.9375 C12.39068378 18.4287459 12.39068378 18.4287459 9 16 C9 24.25 9 32.5 9 41 C6.03 41 3.06 41 0 41 C0 27.47 0 13.94 0 0 Z " fill="#293132" transform="translate(14,217)"/>
<path d="M0 0 C5.383125 -0.1546875 5.383125 -0.1546875 10.875 -0.3125 C11.98472168 -0.35802002 13.09444336 -0.40354004 14.23779297 -0.45043945 C21.5495236 -0.55089312 26.87662253 0.94888159 33 5 C35.85457497 8.02249114 36.18845439 10.47594471 36.375 14.5 C36.22429812 18.45101007 35.57937241 20.88696433 33 24 C27.70998972 28.76100926 23.71487703 29.1408676 16.8125 29.0625 C16.06291016 29.05798828 15.31332031 29.05347656 14.54101562 29.04882812 C12.69397617 29.03706354 10.84697787 29.01912865 9 29 C9 32.96 9 36.92 9 41 C6.03 41 3.06 41 0 41 C0 27.47 0 13.94 0 0 Z " fill="#2A3233" transform="translate(219,217)"/>
<path d="M0 0 C10.23 0 20.46 0 31 0 C31 2.97 31 5.94 31 9 C23.74 9 16.48 9 9 9 C9 11.31 9 13.62 9 16 C14.94 16 20.88 16 27 16 C27 18.64 27 21.28 27 24 C21.06 24 15.12 24 9 24 C9 26.97 9 29.94 9 33 C16.26 33 23.52 33 31 33 C31 35.64 31 38.28 31 41 C20.77 41 10.54 41 0 41 C0 27.47 0 13.94 0 0 Z " fill="#252E2F" transform="translate(66,217)"/>
<path d="M0 0 C2.97 0 5.94 0 9 0 C12.6457937 7.10724951 16.19379601 14.14490423 19.0234375 21.625 C20.10907052 24.2652595 21.40811156 26.73114796 22.75 29.25 C24.68365777 32.99904901 25.56536248 35.70324514 25 40 C22.36 40 19.72 40 17 40 C14 34.25 14 34.25 14 32 C7.4 32 0.8 32 -6 32 C-6.495 34.475 -6.495 34.475 -7 37 C-7.66 37.99 -8.32 38.98 -9 40 C-10.9453125 40.29296875 -10.9453125 40.29296875 -13.125 40.1875 C-14.40375 40.125625 -15.6825 40.06375 -17 40 C-16.44622716 35.27163192 -15.09706322 31.82001622 -12.875 27.625 C-9.75972733 21.62938489 -6.97446763 15.53862464 -4.31005859 9.33056641 C-2.9517219 6.16697705 -1.54103333 3.08206666 0 0 Z " fill="#202929" transform="translate(272,217)"/>
<path d="M0 0 C2.97 0 5.94 0 9 0 C9 5.61 9 11.22 9 17 C12.99549627 13.01985928 12.99549627 13.01985928 16.76171875 8.88671875 C24.40554098 0.41261033 24.40554098 0.41261033 29.00390625 -0.77734375 C31.45178515 -0.75296942 33.62256991 -0.56805852 36 0 C34.12656982 4.73466901 30.29552682 7.99837783 26.72460938 11.49023438 C23.73769899 14.53222859 23.73769899 14.53222859 22.93359375 18.57421875 C24.19271751 21.43837939 25.72337665 23.49028906 27.75 25.875 C37 37.02158273 37 37.02158273 37 40 C33.5145948 40.57852013 30.47056327 40.73558169 27 40 C23.74990606 37.41186176 21.41080143 34.36287313 19 31 C18.43152344 30.28328125 17.86304688 29.5665625 17.27734375 28.828125 C16 27 16 27 16 25 C13.4024235 26.60275997 11.81619132 27.61213844 10 30 C9.18090491 33.66789751 9.01313875 37.24888642 9 41 C2.84765625 41.09765625 2.84765625 41.09765625 1 41 C0 40 0 40 -0.11352539 36.21459961 C-0.11336622 34.52717271 -0.10766917 32.83974095 -0.09765625 31.15234375 C-0.0962413 30.2659169 -0.09482635 29.37949005 -0.09336853 28.46620178 C-0.08775215 25.62326746 -0.07519691 22.78041069 -0.0625 19.9375 C-0.05748711 18.01497509 -0.05292384 16.09244896 -0.04882812 14.16992188 C-0.03777741 9.44658451 -0.02050183 4.72330542 0 0 Z " fill="#242C2C" transform="translate(349,217)"/>
<path d="M0 0 C3.57776316 -0.80667729 6.44753307 -1.00020914 10 0 C12.89715096 2.94071714 14.92555952 5.82384534 17.1875 9.27734375 C18.71893973 12.06643404 18.71893973 12.06643404 21 13 C21.26683594 12.43796875 21.53367188 11.8759375 21.80859375 11.296875 C24.00366157 7.06507211 26.42467022 3.19369345 30 0 C33.14402781 -0.74358753 35.83829602 -0.58072114 39 0 C37.68779266 2.77438124 36.22517631 5.20790172 34.3984375 7.671875 C33.66367188 8.66767578 33.66367188 8.66767578 32.9140625 9.68359375 C32.15222656 10.70646484 32.15222656 10.70646484 31.375 11.75 C30.859375 12.44738281 30.34375 13.14476562 29.8125 13.86328125 C28.54440881 15.57755267 27.2725711 17.28905156 26 19 C27.66824215 22.45705795 29.65548271 25.40631547 31.9375 28.5 C32.62714844 29.4384375 33.31679687 30.376875 34.02734375 31.34375 C35.24684162 32.98584614 36.48547948 34.61414777 37.75390625 36.21875 C39 38 39 38 39 40 C35.45488924 40.71919255 32.51988479 40.92234941 29 40 C25.64870779 36.73971732 23.20985076 33.11106314 21 29 C21 28.34 21 27.68 21 27 C17.50874592 30.18985445 17.50874592 30.18985445 14.96484375 34.11328125 C13.53509754 36.84191555 12.55860211 38.23030021 10 40 C6.93244885 40.65268655 3.94213317 40.74600302 0.8125 40.75 C0.00337158 40.75298096 -0.80575684 40.75596191 -1.6394043 40.7590332 C-7.45650308 40.54246169 -7.45650308 40.54246169 -10.05078125 37.953125 C-10.36402344 37.30859375 -10.67726562 36.6640625 -11 36 C-10.67 35.34 -10.34 34.68 -10 34 C-9.01 34 -8.02 34 -7 34 C-7.33 33.34 -7.66 32.68 -8 32 C-7.34 31.34 -6.68 30.68 -6 30 C-5.67 29.34 -5.34 28.68 -5 28 C-1.71779105 29.64110448 -1.25429211 32.69322988 0 36 C0 36.99 0 37.98 0 39 C0.66 39 1.32 39 2 39 C2.09410156 38.44441406 2.18820313 37.88882813 2.28515625 37.31640625 C3.18423905 34.40298493 4.64945443 32.40210335 6.4375 29.9375 C7.05496094 29.08027344 7.67242187 28.22304687 8.30859375 27.33984375 C8.86675781 26.56769531 9.42492187 25.79554688 10 25 C12.20837083 22.29966885 12.20837083 22.29966885 11.97265625 19.828125 C10.52832956 15.62855662 8.01905804 12.33388582 5.4375 8.75 C4.41353856 7.30858711 3.39130314 5.86594596 2.37109375 4.421875 C1.6893811 3.47199707 1.6893811 3.47199707 0.99389648 2.50292969 C0 1 0 1 0 0 Z " fill="#202929" transform="translate(173,217)"/>
<path d="M0 0 C3.42032743 2.06216463 5.39916701 3.61242239 7.64453125 6.98046875 C8.28231613 11.63294163 8.73048682 16.70904774 6.6640625 21.03125 C3.7424947 24.65399407 0.6469554 26.66155281 -3.90625 27.38671875 C-8.94640073 27.55781298 -12.43124605 27.54715402 -16.41796875 24.23046875 C-19.94491389 20.81562701 -21.64386991 17.54160269 -21.73046875 12.60546875 C-21.61779995 8.03862686 -20.42188662 5.46126741 -17.35546875 1.98046875 C-12.56973824 -2.24223464 -5.74212672 -2.48539813 0 0 Z " fill="#F5F6F6" transform="translate(326.35546875,47.01953125)"/>
<path d="M0 0 C11.55 0 23.1 0 35 0 C35 2.64 35 5.28 35 8 C34.67 8.33 34.34 8.66 34 9 C30.04 9 26.08 9 22 9 C22 19.23 22 29.46 22 40 C19.36 40 16.72 40 14 40 C14 29.77 14 19.54 14 9 C9.38 9 4.76 9 0 9 C0 6.03 0 3.06 0 0 Z " fill="#192224" transform="translate(100,217)"/>
<path d="M0 0 C3.37588035 3.85814897 3.47410399 6.27462337 3.40234375 11.25 C2.97894859 15.68410209 0.89758826 17.86092056 -2.3125 20.75 C-6.752253 23.8578271 -10.78796126 23.62167599 -16 23.5625 C-16.74958984 23.55798828 -17.49917969 23.55347656 -18.27148438 23.54882812 C-20.11852383 23.53706354 -21.96552213 23.51912865 -23.8125 23.5 C-22.4925 23.17 -21.1725 22.84 -19.8125 22.5 C-19.4825 20.85 -19.1525 19.2 -18.8125 17.5 C-20.4625 17.17 -22.1125 16.84 -23.8125 16.5 C-23.8125 16.17 -23.8125 15.84 -23.8125 15.5 C-22.75289062 15.45101562 -21.69328125 15.40203125 -20.6015625 15.3515625 C-19.21351503 15.27653291 -17.82549549 15.20098515 -16.4375 15.125 C-15.38949219 15.07859375 -15.38949219 15.07859375 -14.3203125 15.03125 C-10.11064173 14.90500502 -10.11064173 14.90500502 -6.8125 12.5 C-6.47916667 9.5 -6.47916667 9.5 -6.8125 6.5 C-9.94373283 3.36876717 -14.16336853 4.14106827 -18.40234375 4.109375 C-20.40625 4.0390625 -20.40625 4.0390625 -23.8125 3.5 C-25.09375 1.6484375 -25.09375 1.6484375 -25.8125 -0.5 C-26.78401007 -1.52770044 -27.78133989 -2.53216281 -28.8125 -3.5 C-25.60523298 -3.7276125 -22.3968177 -3.92860225 -19.1875 -4.125 C-18.28386719 -4.18945312 -17.38023437 -4.25390625 -16.44921875 -4.3203125 C-9.86699499 -4.70467593 -5.14186836 -4.57054965 0 0 Z " fill="#222B2B" transform="translate(251.8125,222.5)"/>
<path d="M0 0 C0.66 0 1.32 0 2 0 C3.4375 1.828125 3.4375 1.828125 5 4.25 C5.515625 5.03890625 6.03125 5.8278125 6.5625 6.640625 C7.81625877 8.69842472 8.92236827 10.84473654 10 13 C13.63 12.67 17.26 12.34 21 12 C21 12.66 21 13.32 21 14 C23.475 14.495 23.475 14.495 26 15 C25 17 25 17 23 20 C18.90958946 20.58489973 14.80736447 20.4723326 10.67871094 20.44604492 C8.63893998 20.437558 6.60199224 20.46624145 4.5625 20.49804688 C3.27601563 20.49740234 1.98953125 20.49675781 0.6640625 20.49609375 C-0.51720215 20.49794678 -1.6984668 20.4997998 -2.91552734 20.50170898 C-6.58270728 19.90521898 -7.7848571 18.92927547 -10 16 C-10 15.34 -10 14.68 -10 14 C-10.90492188 14.23396484 -10.90492188 14.23396484 -11.828125 14.47265625 C-12.62734375 14.66730469 -13.4265625 14.86195313 -14.25 15.0625 C-15.03890625 15.25972656 -15.8278125 15.45695312 -16.640625 15.66015625 C-19.10394822 16.01497267 -20.65604132 15.76877544 -23 15 C-23.66 16.32 -24.32 17.64 -25 19 C-25.99 18.67 -26.98 18.34 -28 18 C-28.33 17.34 -28.66 16.68 -29 16 C-29.33 16.66 -29.66 17.32 -30 18 C-30.66 17.67 -31.32 17.34 -32 17 C-31.01 14.69 -30.02 12.38 -29 10 C-28.34 10.66 -27.68 11.32 -27 12 C-21.10326865 12.89108821 -14.83876773 13.5195126 -9 12 C-5.19029023 8.85483348 -3.13882291 5.40831345 -1 1 C-0.67 0.67 -0.34 0.34 0 0 Z " fill="#F8F8F9" transform="translate(192,244)"/>
<path d="M0 0 C0.33 0 0.66 0 1 0 C1.495 19.8 1.495 19.8 2 40 C4.64 40.33 7.28 40.66 10 41 C9.94199219 40.26394531 9.88398438 39.52789062 9.82421875 38.76953125 C9.46009946 30.89415108 9.46009946 30.89415108 11.11328125 28.15625 C12.5 26.8125 12.5 26.8125 15 25 C15.66 25.33 16.32 25.66 17 26 C16.175 26.969375 15.35 27.93875 14.5 28.9375 C11.39736553 33.20252992 11.479105 36.89522901 12 42 C9.36 42.33 6.72 42.66 4 43 C4 43.66 4 44.32 4 45 C3.278125 44.79375 2.55625 44.5875 1.8125 44.375 C-1.47432151 43.93675713 -2.99826957 44.7361135 -6 46 C-7.485 45.505 -7.485 45.505 -9 45 C-7.515 44.505 -7.515 44.505 -6 44 C-6 43.34 -6 42.68 -6 42 C-8.10388569 41.94597726 -10.20816714 41.90719744 -12.3125 41.875 C-13.48425781 41.85179687 -14.65601563 41.82859375 -15.86328125 41.8046875 C-19.16393661 41.74679382 -19.16393661 41.74679382 -22 44 C-21.34 42.35 -20.68 40.7 -20 39 C-20.99 38.67 -21.98 38.34 -23 38 C-22.34 36.68 -21.68 35.36 -21 34 C-20.525625 34.804375 -20.05125 35.60875 -19.5625 36.4375 C-16.00982428 39.99017572 -12.85927675 39.88578623 -8 40 C-8.78741859 38.53936857 -9.5800905 37.08156827 -10.375 35.625 C-10.81585938 34.81289062 -11.25671875 34.00078125 -11.7109375 33.1640625 C-12.9443893 30.89185698 -12.9443893 30.89185698 -15 29 C-14.88813864 25.75602055 -13.74565619 24.72658041 -11.5 22.3125 C-10.2625 21.1678125 -10.2625 21.1678125 -9 20 C-7.41727399 18.41727399 -7.65264253 16.61965997 -7.4375 14.4375 C-7.35371094 13.61121094 -7.26992188 12.78492188 -7.18359375 11.93359375 C-7.12300781 11.29550781 -7.06242187 10.65742188 -7 10 C-6.67 10 -6.34 10 -6 10 C-5.67 12.31 -5.34 14.62 -5 17 C-3.68 17 -2.36 17 -1 17 C-0.67 11.39 -0.34 5.78 0 0 Z " fill="#F6F7F8" transform="translate(348,217)"/>
<path d="M0 0 C0.33 0 0.66 0 1 0 C1 3.63 1 7.26 1 11 C1.66 11.33 2.32 11.66 3 12 C3 12.99 3 13.98 3 15 C3.66 15.33 4.32 15.66 5 16 C5.26171875 18.30078125 5.26171875 18.30078125 5 21 C3.20703125 22.73046875 3.20703125 22.73046875 0.8125 24.1875 C0.03519531 24.67605469 -0.74210937 25.16460937 -1.54296875 25.66796875 C-8.2779882 29.31922731 -14.20645508 30.22270131 -21.6953125 28.3125 C-27.4031337 26.26790733 -30.58805509 24.00418587 -34 19 C-32.02 18.67 -30.04 18.34 -28 18 C-28 17.01 -28 16.02 -28 15 C-28.99 14.34 -29.98 13.68 -31 13 C-30.67 12.34 -30.34 11.68 -30 11 C-29.34 11 -28.68 11 -28 11 C-27.67 10.34 -27.34 9.68 -27 9 C-26.5875 9.763125 -26.175 10.52625 -25.75 11.3125 C-23.96511657 14.05357098 -22.76348227 15.31282135 -20 17 C-14.69762968 17.88906814 -10.23614252 17.62891461 -5.4375 15.1875 C-1.75317046 11.88105041 -0.75005537 9.62571063 -0.375 4.8125 C-0.30023438 3.91144531 -0.22546875 3.01039062 -0.1484375 2.08203125 C-0.09945312 1.39496094 -0.05046875 0.70789062 0 0 Z " fill="#282E2E" transform="translate(334,56)"/>
<path d="M0 0 C0.33 0 0.66 0 1 0 C1 2.64 1 5.28 1 8 C-112.85 7.67 -226.7 7.34 -344 7 C-344 6.67 -344 6.34 -344 6 C-231.14 5.67 -118.28 5.34 -2 5 C-1.34 3.35 -0.68 1.7 0 0 Z " fill="#B3B8BA" transform="translate(371,183)"/>
<path d="M0 0 C-0.99 0.495 -0.99 0.495 -2 1 C-2.18392293 5.55910706 -2.18392293 5.55910706 -1.375 10 C-0.70683143 13.56356572 -1.5342808 15.71923785 -3 19 C-5.86546443 20.61924624 -8.86254775 21.25021233 -12.0625 21.9375 C-12.90361328 22.14439453 -13.74472656 22.35128906 -14.61132812 22.56445312 C-20.5299782 24 -20.5299782 24 -22 24 C-22.02712153 22.083412 -22.04645097 20.1667127 -22.0625 18.25 C-22.07410156 17.18265625 -22.08570313 16.1153125 -22.09765625 15.015625 C-22.01460249 12.4509249 -21.61428582 10.45714328 -21 8 C-21.33 7.34 -21.66 6.68 -22 6 C-18.901466 4.79741744 -15.79541934 3.61559217 -12.6875 2.4375 C-11.80642578 2.09525391 -10.92535156 1.75300781 -10.01757812 1.40039062 C-9.17001953 1.08134766 -8.32246094 0.76230469 -7.44921875 0.43359375 C-6.27879028 -0.01415405 -6.27879028 -0.01415405 -5.0847168 -0.47094727 C-3 -1 -3 -1 0 0 Z " fill="#2D3536" transform="translate(289,121)"/>
<path d="M0 0 C1.65 0 3.3 0 5 0 C5 12.87 5 25.74 5 39 C2.69 39 0.38 39 -2 39 C-2.33 30.42 -2.66 21.84 -3 13 C-3.66 12.67 -4.32 12.34 -5 12 C-5 11.34 -5 10.68 -5 10 C-4.01 9.67 -3.02 9.34 -2 9 C-2 8.01 -2 7.02 -2 6 C-1.36893571 3.98848259 -0.70626239 1.98636298 0 0 Z " fill="#192223" transform="translate(51,218)"/>
<path d="M0 0 C2.97 0 5.94 0 9 0 C9.84584998 1.55575978 10.67618399 3.1199612 11.5 4.6875 C11.9640625 5.55761719 12.428125 6.42773438 12.90625 7.32421875 C14.06542365 10.16005428 14.37148754 11.97134465 14 15 C12 17 12 17 9.375 17.125 C8.59125 17.08375 7.8075 17.0425 7 17 C6.34 15.35 5.68 13.7 5 12 C3.68 14.31 2.36 16.62 1 19 C0.46375 18.7525 -0.0725 18.505 -0.625 18.25 C-4.28754864 17.86446856 -6.15757379 19.86818034 -9 22 C-6.66062389 14.33204498 -3.45231194 7.22862726 0 0 Z " fill="#21292A" transform="translate(272,217)"/>
<path d="M0 0 C0.33 0 0.66 0 1 0 C1.19466332 1.79090253 1.38051213 3.58276505 1.5625 5.375 C1.66691406 6.37273437 1.77132813 7.37046875 1.87890625 8.3984375 C2 11 2 11 1 13 C1.66 13.66 2.32 14.32 3 15 C-0.27278139 17.18185426 -0.9351248 17.21432326 -4.66796875 16.9765625 C-5.56064453 16.925 -6.45332031 16.8734375 -7.37304688 16.8203125 C-8.30181641 16.75585938 -9.23058594 16.69140625 -10.1875 16.625 C-11.12787109 16.56828125 -12.06824219 16.5115625 -13.03710938 16.453125 C-15.35884909 16.31169923 -17.6794993 16.1602967 -20 16 C-20 16.66 -20 17.32 -20 18 C-22.97 18.66 -25.94 19.32 -29 20 C-29 17.03 -29 14.06 -29 11 C-19.94910706 6.0631493 -9.89410213 7.83598799 0 9 C0 6.03 0 3.06 0 0 Z " fill="#F3F6F6" transform="translate(344,144)"/>
<path d="M0 0 C2.43816585 -0.0809723 4.87364384 -0.14046972 7.3125 -0.1875 C8.34793945 -0.22520508 8.34793945 -0.22520508 9.40429688 -0.26367188 C14.50115853 -0.33753944 14.50115853 -0.33753944 16.95703125 1.32421875 C18.59458124 3.9553384 18.3771701 5.98263922 18 9 C16.95703125 10.67578125 16.95703125 10.67578125 15 12 C12.35003674 12.2172101 9.94923442 12.28351554 7.3125 12.1875 C6.2596582 12.16719727 6.2596582 12.16719727 5.18554688 12.14648438 C3.45670171 12.11120182 1.72825235 12.05739583 0 12 C0 8.04 0 4.08 0 0 Z " fill="#F8FAFB" transform="translate(228,226)"/>
<path d="M0 0 C0 3.96 0 7.92 0 12 C-6.6 12 -13.2 12 -20 12 C-20 9.69 -20 7.38 -20 5 C-13.50215979 1.95845778 -7.22232056 0 0 0 Z " fill="#E3E6E7" transform="translate(286,168)"/>
<path d="M0 0 C0.66 0.33 1.32 0.66 2 1 C1.01 1.33 0.02 1.66 -1 2 C-0.2236068 5.0745356 -0.2236068 5.0745356 2 7 C2 7.66 2 8.32 2 9 C1.16597656 9.31453125 0.33195312 9.6290625 -0.52734375 9.953125 C-6.50979286 12.22823737 -12.41748415 14.54268583 -18.1953125 17.30078125 C-20 18 -20 18 -23 18 C-23 15.36 -23 12.72 -23 10 C-17.17652297 7.3060687 -11.32853449 4.66804633 -5.4375 2.125 C-4.44621094 1.69445312 -3.45492187 1.26390625 -2.43359375 0.8203125 C-1.63050781 0.54960938 -0.82742187 0.27890625 0 0 Z " fill="#2B3534" transform="translate(133,125)"/>
<path d="M0 0 C2.45862401 -0.05383848 4.9160755 -0.09359038 7.375 -0.125 C8.42300781 -0.15013672 8.42300781 -0.15013672 9.4921875 -0.17578125 C11.32897486 -0.19344267 13.16601963 -0.10303261 15 0 C17 2 17 2 17.375 5.4375 C17 9 17 9 15.3984375 10.7109375 C12.20831704 12.42549736 9.84948259 12.29548448 6.25 12.1875 C5.07953125 12.16042969 3.9090625 12.13335937 2.703125 12.10546875 C1.81109375 12.07066406 0.9190625 12.03585938 0 12 C0 8.04 0 4.08 0 0 Z " fill="#F7FAFB" transform="translate(314,226)"/>
<path d="M0 0 C5.36891879 0.49869404 10.69235173 1.02227532 16 2 C16 5.63 16 9.26 16 13 C10.64189031 13.16898112 5.80650828 12.56511422 0.5625 11.5 C-0.53481445 11.28537109 -0.53481445 11.28537109 -1.65429688 11.06640625 C-3.43735486 10.71678704 -5.21885203 10.35922312 -7 10 C-5.68 9.34 -4.36 8.68 -3 8 C-3.33 7.34 -3.66 6.68 -4 6 C-2.7934375 5.2884375 -2.7934375 5.2884375 -1.5625 4.5625 C0.84753488 3.23099846 0.84753488 3.23099846 2 2 C1.34 1.34 0.68 0.68 0 0 Z " fill="#E7EAEA" transform="translate(59,151)"/>
<path d="M0 0 C0 2.97 0 5.94 0 9 C-2.7907207 9.83661862 -5.58248012 10.66942737 -8.375 11.5 C-9.1690625 11.73847656 -9.963125 11.97695312 -10.78125 12.22265625 C-11.92207031 12.56103516 -11.92207031 12.56103516 -13.0859375 12.90625 C-14.1385376 13.22045898 -14.1385376 13.22045898 -15.21240234 13.54101562 C-17 14 -17 14 -19 14 C-19 11.03 -19 8.06 -19 5 C-16.77417611 4.15665671 -14.54503974 3.32521449 -12.3125 2.5 C-11.68666016 2.26152344 -11.06082031 2.02304688 -10.41601562 1.77734375 C-6.81807701 0.4587275 -3.83479747 -0.29329235 0 0 Z " fill="#EDEFEE" transform="translate(286,149)"/>
<path d="M0 0 C0 3.3 0 6.6 0 10 C-2.97874065 10.83488226 -5.95796055 11.66797766 -8.9375 12.5 C-9.78763672 12.73847656 -10.63777344 12.97695312 -11.51367188 13.22265625 C-12.32255859 13.44824219 -13.13144531 13.67382812 -13.96484375 13.90625 C-14.7137085 14.11572266 -15.46257324 14.32519531 -16.23413086 14.54101562 C-18 15 -18 15 -19 15 C-19 12.03 -19 9.06 -19 6 C-16.20964954 4.99619084 -13.41785145 3.9968055 -10.625 3 C-9.43390625 2.57074219 -9.43390625 2.57074219 -8.21875 2.1328125 C-7.45820313 1.86210937 -6.69765625 1.59140625 -5.9140625 1.3125 C-4.8614624 0.93544922 -4.8614624 0.93544922 -3.78759766 0.55078125 C-2 0 -2 0 0 0 Z " fill="#EAECEF" transform="translate(286,130)"/>
<path d="M0 0 C6.65050424 -0.24991456 12.56986533 0.26044666 19 2 C19 4.64 19 7.28 19 10 C12.2718373 10.22262303 6.46008837 9.95021536 0 8 C0 5.36 0 2.72 0 0 Z " fill="#E0E5E7" transform="translate(56,170)"/>
<path d="M0 0 C0 3.3 0 6.6 0 10 C-1.7902061 10.67057887 -3.58221489 11.3363469 -5.375 12 C-6.37273437 12.37125 -7.37046875 12.7425 -8.3984375 13.125 C-11 14 -11 14 -13 14 C-13 14.66 -13 15.32 -13 16 C-13.99 16 -14.98 16 -16 16 C-16.28524002 12.62149047 -16.42540036 9.37047976 -16 6 C-13.9375 4.0625 -13.9375 4.0625 -11 3 C-9.2365625 2.1646875 -9.2365625 2.1646875 -7.4375 1.3125 C-4 0 -4 0 0 0 Z " fill="#242C2E" transform="translate(182,130)"/>
<path d="M0 0 C0 3.3 0 6.6 0 10 C-1.76755526 10.84026396 -3.53917263 11.67198722 -5.3125 12.5 C-6.29863281 12.9640625 -7.28476563 13.428125 -8.30078125 13.90625 C-11 15 -11 15 -14 15 C-14 15.66 -14 16.32 -14 17 C-14.66 17 -15.32 17 -16 17 C-16.2852365 13.62153213 -16.41527765 10.37139878 -16 7 C-14.0625 5.125 -14.0625 5.125 -11 4 C-9.43578187 3.27452642 -7.87338827 2.54511046 -6.3125 1.8125 C-2.27340824 0 -2.27340824 0 0 0 Z " fill="#212A2A" transform="translate(182,86)"/>
<path d="M0 0 C0 3.3 0 6.6 0 10 C-1.58199631 10.64910154 -3.16565724 11.29414694 -4.75 11.9375 C-5.63171875 12.29714844 -6.5134375 12.65679687 -7.421875 13.02734375 C-9.61186104 13.85356576 -11.71898271 14.49369943 -14 15 C-14 15.66 -14 16.32 -14 17 C-14.66 17 -15.32 17 -16 17 C-16.41886786 13.57592145 -16.59013976 10.41027665 -16 7 C-12.31772302 2.33578249 -5.79430398 0 0 0 Z " fill="#2A3433" transform="translate(182,65)"/>
<path d="M0 0 C0 2.31 0 4.62 0 7 C-13.00500835 11.44073456 -13.00500835 11.44073456 -18 11 C-19 10 -19 10 -19.0625 6.9375 C-19.041875 5.968125 -19.02125 4.99875 -19 4 C-12.37384327 0.90133798 -7.32627475 -0.47266289 0 0 Z " fill="#EDF1F2" transform="translate(334,169)"/>
<path d="M0 0 C0 3.3 0 6.6 0 10 C-2.1234016 10.83739781 -4.2487728 11.66980283 -6.375 12.5 C-7.55835938 12.9640625 -8.74171875 13.428125 -9.9609375 13.90625 C-13 15 -13 15 -15 15 C-15 11.7 -15 8.4 -15 5 C-13.25447527 4.15733289 -11.5033792 3.32619962 -9.75 2.5 C-8.77546875 2.0359375 -7.8009375 1.571875 -6.796875 1.09375 C-4 0 -4 0 0 0 Z " fill="#262E2F" transform="translate(182,152)"/>
<path d="M0 0 C0 3.3 0 6.6 0 10 C-4.95 11.98 -9.9 13.96 -15 16 C-15 12.37 -15 8.74 -15 5 C-12.8765984 4.16260219 -10.7512272 3.33019717 -8.625 2.5 C-7.44164062 2.0359375 -6.25828125 1.571875 -5.0390625 1.09375 C-2 0 -2 0 0 0 Z " fill="#232B2B" transform="translate(182,108)"/>
<path d="M0 0 C2.33984375 0.24609375 2.33984375 0.24609375 4.0625 0.5625 C2.44246913 4.08795578 0.36940498 7.15277903 -1.875 10.3125 C-2.56464844 11.29734375 -3.25429687 12.2821875 -3.96484375 13.296875 C-4.61582031 14.04453125 -5.26679688 14.7921875 -5.9375 15.5625 C-6.9275 15.5625 -7.9175 15.5625 -8.9375 15.5625 C-9.5975 14.9025 -10.2575 14.2425 -10.9375 13.5625 C-11.9275 14.2225 -12.9175 14.8825 -13.9375 15.5625 C-14.9275 15.2325 -15.9175 14.9025 -16.9375 14.5625 C-16.6075 13.9025 -16.2775 13.2425 -15.9375 12.5625 C-15.2775 12.8925 -14.6175 13.2225 -13.9375 13.5625 C-13.67066406 13.00046875 -13.40382812 12.4384375 -13.12890625 11.859375 C-6.94893332 -0.05480231 -6.94893332 -0.05480231 0 0 Z " fill="#242D2C" transform="translate(207.9375,216.4375)"/>
<path d="M0 0 C3.29385599 3.12765224 6.02196195 6.49653109 8.75 10.125 C9.36681641 10.93130859 9.36681641 10.93130859 9.99609375 11.75390625 C13 15.755788 13 15.755788 13 18 C9.5153102 18.56792731 6.46309732 18.76901871 3 18 C0.06814932 15.35669702 -1.97788781 12.3746508 -4 9 C-3.01 8.34 -2.02 7.68 -1 7 C-1 7.66 -1 8.32 -1 9 C-0.34 9 0.32 9 1 9 C0.47731534 6.23723823 -0.10869587 3.6739124 -1 1 C-0.67 0.67 -0.34 0.34 0 0 Z " fill="#282F2F" transform="translate(199,239)"/>
<path d="M0 0 C11.55 0 23.1 0 35 0 C35 2.64 35 5.28 35 8 C34.67 8 34.34 8 34 8 C34 5.69 34 3.38 34 1 C27.73 1.33 21.46 1.66 15 2 C14.34 3.32 13.68 4.64 13 6 C12.34 6 11.68 6 11 6 C10.67 6.33 10.34 6.66 10 7 C11.32 7.66 12.64 8.32 14 9 C9.38 9 4.76 9 0 9 C0 6.03 0 3.06 0 0 Z " fill="#3E4446" transform="translate(100,217)"/>
<path d="M0 0 C-0.3125 2.375 -0.3125 2.375 -1 5 C-1.99 5.66 -2.98 6.32 -4 7 C-4.33 7.33 -4.66 7.66 -5 8 C-2.03 8 0.94 8 4 8 C4 11.96 4 15.92 4 20 C3.67 20 3.34 20 3 20 C3 16.37 3 12.74 3 9 C1.66195313 9.34224609 1.66195313 9.34224609 0.296875 9.69140625 C-0.87359375 9.97886719 -2.0440625 10.26632813 -3.25 10.5625 C-4.41015625 10.85253906 -5.5703125 11.14257812 -6.765625 11.44140625 C-11.37614484 12.23766753 -11.37614484 12.23766753 -14 11 C-15.25 7.9375 -15.25 7.9375 -16 5 C-13.57395248 2.57395248 -11.85807224 2.24156481 -8.5625 1.375 C-7.59441406 1.11460937 -6.62632812 0.85421875 -5.62890625 0.5859375 C-3 0 -3 0 0 0 Z " fill="#2B3638" transform="translate(283,159)"/>
<path d="M0 0 C3.48030854 -0.55712449 6.54540915 -0.78653631 10 0 C12.66561407 2.67082035 14.35182607 5.62325341 16 9 C13.33333333 10.33333333 10.66666667 11.66666667 8 13 C6.66388095 11.0226631 5.33100742 9.04327287 4 7.0625 C3.6184375 6.49853516 3.236875 5.93457031 2.84375 5.35351562 C0 1.11328125 0 1.11328125 0 0 Z " fill="#252C2E" transform="translate(173,217)"/>
<path d="M0 0 C0.33 0 0.66 0 1 0 C1.33 13.2 1.66 26.4 2 40 C4.64 40.33 7.28 40.66 10 41 C9.91298828 39.89591797 9.91298828 39.89591797 9.82421875 38.76953125 C9.46009946 30.89415108 9.46009946 30.89415108 11.11328125 28.15625 C12.5 26.8125 12.5 26.8125 15 25 C15.66 25.33 16.32 25.66 17 26 C16.175 26.969375 15.35 27.93875 14.5 28.9375 C11.39736553 33.20252992 11.479105 36.89522901 12 42 C9.36 42.33 6.72 42.66 4 43 C4 43.66 4 44.32 4 45 C-1.75 43.25 -1.75 43.25 -4 41 C-4 40.34 -4 39.68 -4 39 C-2.68 39.33 -1.36 39.66 0 40 C0 26.8 0 13.6 0 0 Z " fill="#E9ECEC" transform="translate(348,217)"/>
<path d="M0 0 C3.89610738 3.72671141 3.89610738 3.72671141 4.16796875 7.05859375 C4.17441406 7.84363281 4.18085938 8.62867188 4.1875 9.4375 C4.20167969 10.21996094 4.21585938 11.00242188 4.23046875 11.80859375 C4 14 4 14 2 17 C2 16.01 2 15.02 2 14 C0.88625 13.79375 -0.2275 13.5875 -1.375 13.375 C-5 12 -5 12 -6.4375 9.0625 C-7 6 -7 6 -7 3 C-4.03 3.495 -4.03 3.495 -1 4 C-0.67 2.68 -0.34 1.36 0 0 Z " fill="#293232" transform="translate(251,222)"/>
<path d="M0 0 C0.66 0.33 1.32 0.66 2 1 C1.65822785 10.91139241 1.65822785 10.91139241 -0.625 14.6875 C-3.84797121 16.46861567 -6.38131211 16.27836061 -10 16 C-10 13.69 -10 11.38 -10 9 C-7.03 9 -4.06 9 -1 9 C-1.515625 8.05125 -2.03125 7.1025 -2.5625 6.125 C-3.036875 5.09375 -3.51125 4.0625 -4 3 C-3 1 -3 1 0 0 Z " fill="#F6F8F9" transform="translate(387,248)"/>
<path d="M0 0 C1.31690141 5.38732394 1.31690141 5.38732394 0.0625 7.8125 C-3.16625367 9.67147939 -6.30385339 9.69703716 -10 10 C-10 7.36 -10 4.72 -10 2 C-6.38026598 0.68373308 -3.90432869 0 0 0 Z " fill="#282F31" transform="translate(121,168)"/>
<path d="M0 0 C3.31225448 1.65612724 3.76982575 4.64497931 5 8 C5 9.65 5 11.3 5 13 C1.7 13 -1.6 13 -5 13 C-4.39254603 8.14036821 -2.27241033 4.2594482 0 0 Z " fill="#E2E4E6" transform="translate(276,228)"/>
<path d="M0 0 C3.79555331 2.53036888 4.4455386 4.78074764 6 9 C6 9.99 6 10.98 6 12 C2.7 12 -0.6 12 -4 12 C-3.45660208 7.43545749 -2.20536179 4.0271824 0 0 Z " fill="#E2E3E5" transform="translate(151,229)"/>
<path d="M0 0 C0.66 0.33 1.32 0.66 2 1 C1.01 2.32 0.02 3.64 -1 5 C2.465 4.505 2.465 4.505 6 4 C6 4.66 6 5.32 6 6 C6.99 6.33 7.98 6.66 9 7 C7.54462432 7.83848804 6.08559627 8.67063934 4.625 9.5 C3.81289062 9.9640625 3.00078125 10.428125 2.1640625 10.90625 C0 12 0 12 -2 12 C-3.625 10 -3.625 10 -5 8 C-4.34 7.34 -3.68 6.68 -3 6 C-4.32 5.34 -5.64 4.68 -7 4 C-1.7265625 0.77734375 -1.7265625 0.77734375 0 0 Z " fill="#ECEFEF" transform="translate(177,30)"/>
<path d="M0 0 C0 0.33 0 0.66 0 1 C-4.62 1.66 -9.24 2.32 -14 3 C-12.68 3.66 -11.36 4.32 -10 5 C-10.66 5.66 -11.32 6.32 -12 7 C-12.6425235 9.06874034 -12.6425235 9.06874034 -13 11 C-14.66611905 11.042721 -16.33382885 11.04063832 -18 11 C-19 10 -19 10 -19.0625 6.9375 C-19.041875 5.968125 -19.02125 4.99875 -19 4 C-12.37384327 0.90133798 -7.32627475 -0.47266289 0 0 Z " fill="#CFD4D6" transform="translate(334,169)"/>
<path d="M0 0 C5.94 0 11.88 0 18 0 C18 0.33 18 0.66 18 1 C15.91835982 1.36398622 13.83459438 1.71583287 11.75 2.0625 C10.00976562 2.35833984 10.00976562 2.35833984 8.234375 2.66015625 C5.37477376 2.9606216 3.66674071 2.9439206 1 2 C1 3.98 1 5.96 1 8 C8.26 8 15.52 8 23 8 C23 10.64 23 13.28 23 16 C22.67 16 22.34 16 22 16 C22 13.69 22 11.38 22 9 C14.74 9 7.48 9 0 9 C0 6.03 0 3.06 0 0 Z " fill="#999F9F" transform="translate(75,241)"/>
<path d="M0 0 C0.66 0.66 1.32 1.32 2 2 C3.93257855 2.36831081 3.93257855 2.36831081 6.1328125 2.4140625 C7.34130859 2.47207031 7.34130859 2.47207031 8.57421875 2.53125 C9.83685547 2.57765625 9.83685547 2.57765625 11.125 2.625 C11.97449219 2.66367187 12.82398438 2.70234375 13.69921875 2.7421875 C15.79911684 2.83656494 17.89952891 2.91937586 20 3 C20 3.33 20 3.66 20 4 C18.41913952 4.36504603 16.83516093 4.71660506 15.25 5.0625 C14.36828125 5.25972656 13.4865625 5.45695312 12.578125 5.66015625 C10.01320972 5.99825872 8.42908361 5.81158635 6 5 C5.34 6.32 4.68 7.64 4 9 C3.01 8.67 2.02 8.34 1 8 C0.67 7.34 0.34 6.68 0 6 C-0.33 6.66 -0.66 7.32 -1 8 C-1.66 7.67 -2.32 7.34 -3 7 C-2.01 4.69 -1.02 2.38 0 0 Z " fill="#D1D4D5" transform="translate(163,254)"/>
<path d="M0 0 C2.6855594 2.6855594 3.06049974 5.37621328 4 9 C2.35 8.34 0.7 7.68 -1 7 C-1.309375 7.804375 -1.61875 8.60875 -1.9375 9.4375 C-3 12 -3 12 -4 13 C-6.01964199 13.07244053 -8.04167124 13.08377188 -10.0625 13.0625 C-11.16722656 13.05347656 -12.27195312 13.04445312 -13.41015625 13.03515625 C-14.69212891 13.01775391 -14.69212891 13.01775391 -16 13 C-15.67 12.34 -15.34 11.68 -15 11 C-11.7 11.33 -8.4 11.66 -5 12 C-5.33 9.69 -5.66 7.38 -6 5 C-5.195625 4.731875 -4.39125 4.46375 -3.5625 4.1875 C-2.716875 3.795625 -1.87125 3.40375 -1 3 C-0.67 2.01 -0.34 1.02 0 0 Z " fill="#313637" transform="translate(286,229)"/>
<path d="M0 0 C6.6 0 13.2 0 20 0 C20.99 1.98 21.98 3.96 23 6 C22.67 6.66 22.34 7.32 22 8 C21.01 8 20.02 8 19 8 C18.67 7.01 18.34 6.02 18 5 C17.34 4.67 16.68 4.34 16 4 C16 3.01 16 2.02 16 1 C11.38 1.33 6.76 1.66 2 2 C2 2.99 2 3.98 2 5 C1.01 5 0.02 5 -1 5 C-0.67 3.35 -0.34 1.7 0 0 Z " fill="#E5E8E9" transform="translate(266,249)"/>
<path d="M0 0 C0.83265381 0.00523682 1.66530762 0.01047363 2.52319336 0.01586914 C3.42231445 0.0190918 4.32143555 0.02231445 5.24780273 0.02563477 C6.66609375 0.03820312 6.66609375 0.03820312 8.11303711 0.05102539 C9.06243164 0.05553711 10.01182617 0.06004883 10.98999023 0.06469727 C13.34356776 0.07652429 15.69702188 0.09300514 18.05053711 0.11352539 C18.05053711 0.44352539 18.05053711 0.77352539 18.05053711 1.11352539 C10.13053711 1.60852539 10.13053711 1.60852539 2.05053711 2.11352539 C1.72053711 3.43352539 1.39053711 4.75352539 1.05053711 6.11352539 C1.71053711 6.44352539 2.37053711 6.77352539 3.05053711 7.11352539 C0.04021967 8.04776184 -0.81596557 8.1580245 -3.94946289 7.11352539 C-2.91528646 0.16976934 -2.91528646 0.16976934 0 0 Z " fill="#2F3738" transform="translate(27.949462890625,179.886474609375)"/>
<path d="M0 0 C0 0.33 0 0.66 0 1 C-1.15628906 1.03867188 -1.15628906 1.03867188 -2.3359375 1.078125 C-3.33882813 1.13484375 -4.34171875 1.1915625 -5.375 1.25 C-6.37273437 1.29640625 -7.37046875 1.3428125 -8.3984375 1.390625 C-9.68621094 1.69226563 -9.68621094 1.69226563 -11 2 C-12.27645694 3.92744462 -12.27645694 3.92744462 -13 6 C-13.99 6.495 -13.99 6.495 -15 7 C-15.65555119 9.52733235 -15.65555119 9.52733235 -16 12 C-16.99 12 -17.98 12 -19 12 C-19 9.03 -19 6.06 -19 3 C-12.68284595 -0.44572039 -7.09629025 -0.31461385 0 0 Z " fill="#CACED0" transform="translate(334,152)"/>
<path d="M0 0 C0.33 0 0.66 0 1 0 C1 2.64 1 5.28 1 8 C-18.8 7.505 -18.8 7.505 -39 7 C-39 6.67 -39 6.34 -39 6 C-26.79 5.67 -14.58 5.34 -2 5 C-1.34 3.35 -0.68 1.7 0 0 Z " fill="#BDC4C4" transform="translate(371,183)"/>
<path d="M0 0 C0.33 0 0.66 0 1 0 C1.19466332 1.79090253 1.38051213 3.58276505 1.5625 5.375 C1.66691406 6.37273437 1.77132813 7.37046875 1.87890625 8.3984375 C2 11 2 11 1 13 C1.66 13.66 2.32 14.32 3 15 C-0.08888522 17.05925681 -0.70935927 17.2390374 -4.1875 17.125 C-5.445625 17.08375 -6.70375 17.0425 -8 17 C-8 16.67 -8 16.34 -8 16 C-6.02 16 -4.04 16 -2 16 C-2.66 14.68 -3.32 13.36 -4 12 C-3.34 12 -2.68 12 -2 12 C-2 11.34 -2 10.68 -2 10 C-4.31 10 -6.62 10 -9 10 C-9 9.67 -9 9.34 -9 9 C-6.03 9 -3.06 9 0 9 C0 6.03 0 3.06 0 0 Z " fill="#D9DEDD" transform="translate(344,144)"/>
<path d="M0 0 C2 1.375 2 1.375 4 3 C4 3.66 4 4.32 4 5 C9.445 4.505 9.445 4.505 15 4 C15 4.99 15 5.98 15 7 C10.545 7.495 10.545 7.495 6 8 C6 8.66 6 9.32 6 10 C4.125 9.8125 4.125 9.8125 2 9 C0.21715186 5.70173093 0 3.8225249 0 0 Z " fill="#D5D9D9" transform="translate(198,252)"/>
<path d="M0 0 C0.639375 0.804375 1.27875 1.60875 1.9375 2.4375 C5.90127449 5.75412763 8.97294083 5.87952582 14 6 C14 5.34 14 4.68 14 4 C14.66 4 15.32 4 16 4 C16.33 5.32 16.66 6.64 17 8 C15.53626953 7.96519531 15.53626953 7.96519531 14.04296875 7.9296875 C12.77066406 7.91164063 11.49835938 7.89359375 10.1875 7.875 C8.92292969 7.85179687 7.65835937 7.82859375 6.35546875 7.8046875 C2.8661976 7.72418082 2.8661976 7.72418082 0 10 C0.66 8.35 1.32 6.7 2 5 C1.01 4.67 0.02 4.34 -1 4 C-0.67 2.68 -0.34 1.36 0 0 Z " fill="#E9EBEC" transform="translate(326,251)"/>
<path d="M0 0 C0.66 0.33 1.32 0.66 2 1 C1.67 3.97 1.34 6.94 1 10 C-2.63 10 -6.26 10 -10 10 C-10 9.67 -10 9.34 -10 9 C-7.03 9 -4.06 9 -1 9 C-1.515625 8.05125 -2.03125 7.1025 -2.5625 6.125 C-3.036875 5.09375 -3.51125 4.0625 -4 3 C-3 1 -3 1 0 0 Z " fill="#D6DADA" transform="translate(387,248)"/>
<path d="M0 0 C0.33 0 0.66 0 1 0 C1 3.63 1 7.26 1 11 C2.91731918 10.88544319 4.8338675 10.75793742 6.75 10.625 C7.81734375 10.55539063 8.8846875 10.48578125 9.984375 10.4140625 C12.80206432 10.0271777 14.5830366 9.44313834 17 8 C17 6.35 17 4.7 17 3 C17.33 3 17.66 3 18 3 C18.36065574 8.40983607 18.36065574 8.40983607 16.96875 10.6875 C13.936689 12.708874 10.82111386 12.31526465 7.3125 12.1875 C6.2596582 12.16719727 6.2596582 12.16719727 5.18554688 12.14648438 C3.45670171 12.11120182 1.72825235 12.05739583 0 12 C0 8.04 0 4.08 0 0 Z " fill="#B8BFC0" transform="translate(228,226)"/>
<path d="M0 0 C1.65 1.65 3.3 3.3 5 5 C4.3125 7.875 4.3125 7.875 3 11 C0.08332445 12.64530416 -1.64720982 13 -5 13 C-4.29423828 12.41798828 -4.29423828 12.41798828 -3.57421875 11.82421875 C-1.59007113 9.52497076 -1.31466837 7.78688189 -0.8125 4.8125 C-0.65394531 3.91144531 -0.49539062 3.01039063 -0.33203125 2.08203125 C-0.22246094 1.39496094 -0.11289063 0.70789063 0 0 Z " fill="#E2E7E7" transform="translate(255,229)"/>
<path d="M0 0 C1.32 0 2.64 0 4 0 C4 0.66 4 1.32 4 2 C7.465 1.505 7.465 1.505 11 1 C11.33 2.32 11.66 3.64 12 5 C11.13375 4.773125 10.2675 4.54625 9.375 4.3125 C5.31661591 3.9367237 3.44833324 4.94742069 0 7 C-0.66 6.34 -1.32 5.68 -2 5 C-1.01 4.01 -0.02 3.02 1 2 C0.67 1.34 0.34 0.68 0 0 Z " fill="#E6E7E8" transform="translate(191,26)"/>
<path d="M0 0 C1.32 0.33 2.64 0.66 4 1 C4.33 2.98 4.66 4.96 5 7 C2.09399739 8.25664978 0.20395416 9 -3 9 C-1.92598892 6.08482708 -1.22189824 4.22189824 1 2 C0.67 1.34 0.34 0.68 0 0 Z " fill="#1C2223" transform="translate(215,17)"/>
<path d="M0 0 C-0.125 1.875 -0.125 1.875 -1 4 C-3.8125 5.375 -3.8125 5.375 -7 6 C-9.375 5.125 -9.375 5.125 -11 4 C-10.34 3.67 -9.68 3.34 -9 3 C-10.32 2.67 -11.64 2.34 -13 2 C-11.58461283 1.66127487 -10.16762037 1.32925376 -8.75 1 C-7.56664062 0.7215625 -7.56664062 0.7215625 -6.359375 0.4375 C-4 0 -4 0 0 0 Z " fill="#E4E9EA" transform="translate(141,170)"/>
<path d="M0 0 C1.65 0 3.3 0 5 0 C5.33 1.65 5.66 3.3 6 5 C3.36 5 0.72 5 -2 5 C-2 4.01 -2 3.02 -2 2 C-1.34 2 -0.68 2 0 2 C0 1.34 0 0.68 0 0 Z " fill="#182422" transform="translate(291,252)"/>
<path d="M0 0 C0.33 0 0.66 0 1 0 C1.33 2.97 1.66 5.94 2 9 C1.01 8.34 0.02 7.68 -1 7 C-1.99 7.66 -2.98 8.32 -4 9 C-4.99 8.67 -5.98 8.34 -7 8 C-6.67 7.34 -6.34 6.68 -6 6 C-5.34 6.33 -4.68 6.66 -4 7 C-3.71125 6.401875 -3.4225 5.80375 -3.125 5.1875 C-2 3 -2 3 0 0 Z " fill="#353C3C" transform="translate(198,223)"/>
<path d="M0 0 C-1.66666667 0.66666667 -3.33333333 1.33333333 -5 2 C-6.2684375 2.5259375 -6.2684375 2.5259375 -7.5625 3.0625 C-11.85714286 4.71428571 -11.85714286 4.71428571 -14 5 C-14.99 4.34 -15.98 3.68 -17 3 C-16.67 2.34 -16.34 1.68 -16 1 C-14.00360558 0.70545 -12.00447142 0.41955602 -9.99609375 0.22265625 C-7.93573353 0.04644663 -7.93573353 0.04644663 -5.75 -0.625 C-3.57198513 -1.09171747 -2.0973306 -0.67414198 0 0 Z " fill="#383C3F" transform="translate(332,178)"/>
<path d="M0 0 C-0.49831724 3.68754757 -1.10067643 5.60490662 -4 8 C-6.35953094 5.64046906 -6.49141413 4.22104383 -7 1 C-2.25 0 -2.25 0 0 0 Z " fill="#192123" transform="translate(332,38)"/>
<path d="M0 0 C1.98 0.66 3.96 1.32 6 2 C5.01 2.495 5.01 2.495 4 3 C4 3.66 4 4.32 4 5 C2.02 5.33 0.04 5.66 -2 6 C-2.33 5.01 -2.66 4.02 -3 3 C-2.01 2.01 -1.02 1.02 0 0 Z " fill="#181F21" transform="translate(302,69)"/>
<path d="M0 0 C0.33 1.32 0.66 2.64 1 4 C1.66 4 2.32 4 3 4 C3.33 2.68 3.66 1.36 4 0 C6 2 6 2 7 5 C6.67 5.99 6.34 6.98 6 8 C3.13275314 7.42655063 2.1385485 7.1385485 0 5 C-0.125 2.375 -0.125 2.375 0 0 Z " fill="#33393A" transform="translate(143,40)"/>
<path d="M0 0 C0.99 0 1.98 0 3 0 C3.66 1.32 4.32 2.64 5 4 C3.35 4.33 1.7 4.66 0 5 C0 7.31 0 9.62 0 12 C-0.66 12 -1.32 12 -2 12 C-2.05395478 10.37536158 -2.09277195 8.75021459 -2.125 7.125 C-2.14820313 6.22007813 -2.17140625 5.31515625 -2.1953125 4.3828125 C-2 2 -2 2 0 0 Z " fill="#4C5254" transform="translate(168,91)"/>
<path d="M0 0 C0.33 0 0.66 0 1 0 C1.25 3.3125 1.25 3.3125 1 7 C-1.36609872 9.55167509 -2.7462262 9.97701324 -6.234375 10.29296875 C-7.39453125 10.25816406 -8.5546875 10.22335938 -9.75 10.1875 C-10.92046875 10.16042969 -12.0909375 10.13335937 -13.296875 10.10546875 C-14.18890625 10.07066406 -15.0809375 10.03585938 -16 10 C-16 9.67 -16 9.34 -16 9 C-14.89591797 8.92652344 -14.89591797 8.92652344 -13.76953125 8.8515625 C-12.30580078 8.73941406 -12.30580078 8.73941406 -10.8125 8.625 C-9.84957031 8.55539063 -8.88664062 8.48578125 -7.89453125 8.4140625 C-4.98491062 7.99784147 -2.67109226 7.20125904 0 6 C0 4.02 0 2.04 0 0 Z " fill="#C3C9C9" transform="translate(330,228)"/>
<path d="M0 0 C0.99 0 1.98 0 3 0 C3 2.64 3 5.28 3 8 C0.03 7.505 0.03 7.505 -3 7 C-3 3.47190093 -2.35723489 2.53184488 0 0 Z " fill="#1A2322" transform="translate(179,65)"/>
<path d="M0 0 C0 0.33 0 0.66 0 1 C-3.3 1 -6.6 1 -10 1 C-10.33 1.99 -10.66 2.98 -11 4 C-12.875 4.8125 -12.875 4.8125 -15 5 C-15.99 4.34 -16.98 3.68 -18 3 C-11.92122066 -0.24201565 -6.81598387 -0.33278764 0 0 Z " fill="#373D3C" transform="translate(325,35)"/>
<path d="M0 0 C2 2 2 2 2.125 4.625 C2.08375 5.40875 2.0425 6.1925 2 7 C-0.97 7 -3.94 7 -7 7 C-7.33 6.01 -7.66 5.02 -8 4 C-5.36 4 -2.72 4 0 4 C0 2.68 0 1.36 0 0 Z " fill="#B6BCBC" transform="translate(297,253)"/>
<path d="M0 0 C0.66 0.33 1.32 0.66 2 1 C1.195625 2.010625 0.39125 3.02125 -0.4375 4.0625 C-3.10547019 7.75545309 -3.72410871 10.49377556 -4 15 C-4.33 15 -4.66 15 -5 15 C-5.76681614 6.22421525 -5.76681614 6.22421525 -3.88671875 3.22265625 C-2.5 1.875 -2.5 1.875 0 0 Z " fill="#CED4D5" transform="translate(363,242)"/>
<path d="M0 0 C0 3.54404336 -0.60989485 4.10267905 -2.875 6.6875 C-3.40867187 7.31011719 -3.94234375 7.93273437 -4.4921875 8.57421875 C-6 10 -6 10 -8 10 C-8 10.66 -8 11.32 -8 12 C-8.66 11.67 -9.32 11.34 -10 11 C-8.89718873 9.72799029 -7.79269231 8.45744147 -6.6875 7.1875 C-6.07261719 6.47980469 -5.45773437 5.77210938 -4.82421875 5.04296875 C-3.26665665 3.29863261 -1.67341125 1.63221959 0 0 Z " fill="#36383A" transform="translate(370,222)"/>
<path d="M0 0 C0.33 0 0.66 0 1 0 C1.33 1.65 1.66 3.3 2 5 C3.32 4.67 4.64 4.34 6 4 C5.67 5.32 5.34 6.64 5 8 C4.34 8 3.68 8 3 8 C3 8.66 3 9.32 3 10 C2.01 10 1.02 10 0 10 C0 6.7 0 3.4 0 0 Z " fill="#4C5657" transform="translate(166,136)"/>
<path d="M0 0 C0.66 0 1.32 0 2 0 C2 2.64 2 5.28 2 8 C1.01 8.33 0.02 8.66 -1 9 C-1.09765625 2.84765625 -1.09765625 2.84765625 -1 1 C-0.67 0.67 -0.34 0.34 0 0 Z " fill="#F2F7F7" transform="translate(98,216)"/>
<path d="M0 0 C4.95 0.33 9.9 0.66 15 1 C15 1.33 15 1.66 15 2 C13.98679688 2.09087891 13.98679688 2.09087891 12.953125 2.18359375 C12.06109375 2.26738281 11.1690625 2.35117188 10.25 2.4375 C9.36828125 2.51871094 8.4865625 2.59992188 7.578125 2.68359375 C5.30649548 2.96238465 3.20148177 3.38790577 1 4 C0.67 2.68 0.34 1.36 0 0 Z " fill="#3B4546" transform="translate(126,114)"/>
<path d="M0 0 C-0.66 1.65 -1.32 3.3 -2 5 C-5.10551666 5 -6.35261084 4.4606285 -9 3 C-2.25 0 -2.25 0 0 0 Z " fill="#404445" transform="translate(176,110)"/>
<path d="M0 0 C1 3 1 3 -0.1875 5.4375 C-1.93979049 7.91487622 -3.78315483 9.9360407 -6 12 C-6.66 11.67 -7.32 11.34 -8 11 C-5.36 7.37 -2.72 3.74 0 0 Z " fill="#D1D8D8" transform="translate(191,245)"/>
<path d="M0 0 C3.73639216 1.24546405 4.18756513 2.63404953 6 6 C4.02 6.33 2.04 6.66 0 7 C0 4.69 0 2.38 0 0 Z " fill="#E8EBED" transform="translate(24,234)"/>
<path d="M0 0 C2.97 0.495 2.97 0.495 6 1 C6.33 1.99 6.66 2.98 7 4 C5.02 4.66 3.04 5.32 1 6 C0.67 4.02 0.34 2.04 0 0 Z " fill="#283434" transform="translate(268,113)"/>
<path d="M0 0 C0.66 0.33 1.32 0.66 2 1 C1.01 1.33 0.02 1.66 -1 2 C-1.73323796 4.01508358 -1.73323796 4.01508358 -2 6 C-3.98 5.34 -5.96 4.68 -8 4 C-5.31143836 2.20762558 -3.0466145 1.01553817 0 0 Z " fill="#CAD2D2" transform="translate(177,163)"/>
<path d="M0 0 C0.66 0 1.32 0 2 0 C2.33 1.32 2.66 2.64 3 4 C-1.16138263 4.08159574 -4.9472484 3.98248524 -9 3 C-9 2.67 -9 2.34 -9 2 C-6.03 2 -3.06 2 0 2 C0 1.34 0 0.68 0 0 Z " fill="#BBC0C0" transform="translate(340,255)"/>
<path d="M0 0 C1.65 0 3.3 0 5 0 C5.625 1.8125 5.625 1.8125 6 4 C5.01 5.485 5.01 5.485 4 7 C2.02 3.535 2.02 3.535 0 0 Z " fill="#E0E2E3" transform="translate(202,242)"/>
<path d="M0 0 C-0.66 0.66 -1.32 1.32 -2 2 C-1.01 2.66 -0.02 3.32 1 4 C-2.3 3.67 -5.6 3.34 -9 3 C-4 -2 -4 -2 0 0 Z " fill="#323838" transform="translate(179,67)"/>
<path d="M0 0 C2.97 0.495 2.97 0.495 6 1 C5.34 2.32 4.68 3.64 4 5 C2.02 4.34 0.04 3.68 -2 3 C-1.34 2.01 -0.68 1.02 0 0 Z " fill="#E1E5E6" transform="translate(330,34)"/>
<path d="M0 0 C2.6855594 2.6855594 3.06049974 5.37621328 4 9 C2.0625 8.25 2.0625 8.25 0 7 C-1.23843794 4.04680182 -1.04187157 3.12561472 0 0 Z " fill="#3E4546" transform="translate(286,229)"/>
<path d="M0 0 C1 4 1 4 1 6 C-0.8125 7.0625 -0.8125 7.0625 -3 8 C-3.99 7.67 -4.98 7.34 -6 7 C-4.02 4.69 -2.04 2.38 0 0 Z " fill="#CBD0D0" transform="translate(385,217)"/>
<path d="M0 0 C0.99 0.495 0.99 0.495 2 1 C4.78918149 2.10540926 4.78918149 2.10540926 7 2 C7 2.66 7 3.32 7 4 C5.02 4.33 3.04 4.66 1 5 C0.67 6.32 0.34 7.64 0 9 C0 6.03 0 3.06 0 0 Z " fill="#152020" transform="translate(167,136)"/>
<path d="M0 0 C0.33 0 0.66 0 1 0 C1.33 1.98 1.66 3.96 2 6 C3.32 6.33 4.64 6.66 6 7 C6 7.66 6 8.32 6 9 C4.34385343 9.38218767 2.67542976 9.71395102 1 10 C0 9 0 9 -0.09765625 6.93359375 C-0.08605469 6.10988281 -0.07445312 5.28617188 -0.0625 4.4375 C-0.05347656 3.61121094 -0.04445313 2.78492188 -0.03515625 1.93359375 C-0.02355469 1.29550781 -0.01195312 0.65742187 0 0 Z " fill="#C3C7C7" transform="translate(305,55)"/>
<path d="M0 0 C0.99 0.33 1.98 0.66 3 1 C3 5 3 5 1.5 6.75 C1.005 7.1625 0.51 7.575 0 8 C-0.98120464 4.94736336 -0.98120464 3.05263664 0 0 Z " fill="#F6F9FA" transform="translate(268,137)"/>
<path d="M0 0 C2.475 0.99 2.475 0.99 5 2 C5.33 1.34 5.66 0.68 6 0 C6.33 1.65 6.66 3.3 7 5 C1.25 3.25 1.25 3.25 -1 1 C-0.67 0.67 -0.34 0.34 0 0 Z " fill="#CDD2D3" transform="translate(307,105)"/>
<path d="M0 0 C-1 2 -2 4 -3 6 C-3.99 5.67 -4.98 5.34 -6 5 C-6 4.01 -6 3.02 -6 2 C-2.25 0 -2.25 0 0 0 Z " fill="#303435" transform="translate(177,88)"/>
<path d="M0 0 C0.66666667 2.66666667 1.33333333 5.33333333 2 8 C0.68 8 -0.64 8 -2 8 C-1.125 2.25 -1.125 2.25 0 0 Z " fill="#42484A" transform="translate(257,249)"/>
<path d="M0 0 C0.33 0.66 0.66 1.32 1 2 C1.66 2.33 2.32 2.66 3 3 C0.35541621 4.32229189 -1.67761301 4.09677194 -4.625 4.0625 C-5.62789063 4.05347656 -6.63078125 4.04445312 -7.6640625 4.03515625 C-8.43492188 4.02355469 -9.20578125 4.01195312 -10 4 C-10 3.67 -10 3.34 -10 3 C-8.72125 2.87625 -7.4425 2.7525 -6.125 2.625 C-2.65209064 2.30957601 -2.65209064 2.30957601 0 0 Z " fill="#161D1F" transform="translate(112,221)"/>
<path d="M0 0 C3.3 0 6.6 0 10 0 C10 0.33 10 0.66 10 1 C8.02 1 6.04 1 4 1 C3.67 2.32 3.34 3.64 3 5 C2.01 3.35 1.02 1.7 0 0 Z " fill="#363F3D" transform="translate(173,217)"/>
<path d="M0 0 C0.66 0 1.32 0 2 0 C2 2.97 2 5.94 2 9 C1.01 8.67 0.02 8.34 -1 8 C-1.125 2.25 -1.125 2.25 0 0 Z " fill="#2F3437" transform="translate(313,155)"/>
<path d="M0 0 C0.66 0.33 1.32 0.66 2 1 C1.01 1.33 0.02 1.66 -1 2 C-2.20882096 4.00016466 -2.20882096 4.00016466 -3 6 C-3.66 6 -4.32 6 -5 6 C-5.33 5.01 -5.66 4.02 -6 3 C-4.03533587 1.93224776 -2.03144641 0.93446535 0 0 Z " fill="#424749" transform="translate(101,118)"/>
<path d="M0 0 C0.66 0.33 1.32 0.66 2 1 C0.35 2.65 -1.3 4.3 -3 6 C-4.32 5.34 -5.64 4.68 -7 4 C-1.7265625 0.77734375 -1.7265625 0.77734375 0 0 Z " fill="#D0D6D6" transform="translate(177,30)"/>
<path d="M0 0 C0 1.65 0 3.3 0 5 C-1.98 4.34 -3.96 3.68 -6 3 C-2.25 0 -2.25 0 0 0 Z " fill="#242B29" transform="translate(131,106)"/>
<path d="M0 0 C2.64 0 5.28 0 8 0 C8 0.33 8 0.66 8 1 C6.02 1.33 4.04 1.66 2 2 C2 2.99 2 3.98 2 5 C1.01 5 0.02 5 -1 5 C-0.67 3.35 -0.34 1.7 0 0 Z " fill="#CCD4D6" transform="translate(266,249)"/>
<path d="M0 0 C0.66 0.33 1.32 0.66 2 1 C2.625 3.5625 2.625 3.5625 3 6 C1.35 6 -0.3 6 -2 6 C-1.34 4.02 -0.68 2.04 0 0 Z " fill="#CFD4D6" transform="translate(276,228)"/>
<path d="M0 0 C0.99 0.33 1.98 0.66 3 1 C3 1.66 3 2.32 3 3 C-0.76624671 4.25541557 -2.37188934 3.37061958 -6 2 C-5.38125 1.855625 -4.7625 1.71125 -4.125 1.5625 C-1.96741678 1.06847775 -1.96741678 1.06847775 0 0 Z " fill="#D7DCDD" transform="translate(301,100)"/>
</svg>
